<svg xmlns="http://www.w3.org/2000/svg" width="1200" height="630" viewBox="0 0 1200 630" role="img" aria-label="CRYPTOGRAPHY thumbnail">
  <defs>
    <linearGradient id="bg" x1="0" y1="0" x2="1" y2="1">
      <stop offset="0" stop-color="#020817"/>
      <stop offset="0.58" stop-color="#07111f"/>
      <stop offset="1" stop-color="#111827"/>
    </linearGradient>
  </defs>
  <rect width="1200" height="630" fill="url(#bg)"/>
  <g stroke="#1e293b" stroke-width="2" opacity=".85">
    <path d="M0 104h1200M0 526h1200M120 0v630M1080 0v630"/>
    <path d="M240 0v630M960 0v630M0 210h1200M0 420h1200" opacity=".55"/>
  </g>
    <circle cx="310" cy="276" r="128" fill="#07111f" stroke="#334155" stroke-width="4"/>
  <circle cx="310" cy="276" r="72" fill="none" stroke="#a78bfa" stroke-width="7"/>
  <path d="M310 204v144M238 276h144M260 226l100 100M360 226L260 326" stroke="#818cf8" stroke-width="5" stroke-linecap="round"/>
  <text x="150" y="520" fill="#e5edf7" font-family="JetBrains Mono, Consolas, monospace" font-size="52" font-weight="700">CRYPTOGRAPHY</text>
  <text x="152" y="568" fill="#93a4b8" font-family="Inter, Arial, sans-serif" font-size="28">ciphers / math / implementation flaws</text>
  <text x="752" y="376" fill="#a78bfa" font-family="JetBrains Mono, Consolas, monospace" font-size="28">known_plaintext -> key</text>
  <rect x="150" y="590" width="284" height="7" rx="4" fill="#a78bfa"/>
</svg>
