<svg xmlns="http://www.w3.org/2000/svg" width="1200" height="630" viewBox="0 0 1200 630" role="img" aria-label="DIGITAL FORENSICS thumbnail">
  <defs>
    <linearGradient id="bg" x1="0" y1="0" x2="1" y2="1">
      <stop offset="0" stop-color="#020817"/>
      <stop offset="0.58" stop-color="#07111f"/>
      <stop offset="1" stop-color="#111827"/>
    </linearGradient>
  </defs>
  <rect width="1200" height="630" fill="url(#bg)"/>
  <g stroke="#1e293b" stroke-width="2" opacity=".85">
    <path d="M0 104h1200M0 526h1200M120 0v630M1080 0v630"/>
    <path d="M240 0v630M960 0v630M0 210h1200M0 420h1200" opacity=".55"/>
  </g>
    <rect x="146" y="118" width="390" height="300" rx="14" fill="#07111f" stroke="#334155" stroke-width="3"/>
  <path d="M198 182h276M198 238h220M198 294h270M198 350h172" stroke="#475569" stroke-width="12" stroke-linecap="round"/>
  <circle cx="722" cy="260" r="82" fill="none" stroke="#14b8a6" stroke-width="11"/>
  <path d="M780 318l104 104" stroke="#14b8a6" stroke-width="16" stroke-linecap="round"/>
  <text x="150" y="520" fill="#e5edf7" font-family="JetBrains Mono, Consolas, monospace" font-size="52" font-weight="700">DIGITAL FORENSICS</text>
  <text x="152" y="568" fill="#93a4b8" font-family="Inter, Arial, sans-serif" font-size="28">traffic / artifacts / recovered evidence</text>
  <text x="752" y="376" fill="#14b8a6" font-family="JetBrains Mono, Consolas, monospace" font-size="28">pcap -> payload -> proof</text>
  <rect x="150" y="590" width="284" height="7" rx="4" fill="#14b8a6"/>
</svg>
