<svg xmlns="http://www.w3.org/2000/svg" width="1200" height="630" viewBox="0 0 1200 630" role="img" aria-label="OSINT thumbnail">
  <defs>
    <linearGradient id="bg" x1="0" y1="0" x2="1" y2="1">
      <stop offset="0" stop-color="#020817"/>
      <stop offset="0.58" stop-color="#07111f"/>
      <stop offset="1" stop-color="#111827"/>
    </linearGradient>
  </defs>
  <rect width="1200" height="630" fill="url(#bg)"/>
  <g stroke="#1e293b" stroke-width="2" opacity=".85">
    <path d="M0 104h1200M0 526h1200M120 0v630M1080 0v630"/>
    <path d="M240 0v630M960 0v630M0 210h1200M0 420h1200" opacity=".55"/>
  </g>
    <path d="M302 122c-66 0-120 54-120 120 0 86 120 214 120 214s120-128 120-214c0-66-54-120-120-120z" fill="#07111f" stroke="#f59e0b" stroke-width="8"/>
  <circle cx="302" cy="242" r="42" fill="none" stroke="#334155" stroke-width="8"/>
  <path d="M502 188h388M502 254h296M502 320h360" stroke="#475569" stroke-width="13" stroke-linecap="round"/>
  <text x="150" y="520" fill="#e5edf7" font-family="JetBrains Mono, Consolas, monospace" font-size="52" font-weight="700">OSINT</text>
  <text x="152" y="568" fill="#93a4b8" font-family="Inter, Arial, sans-serif" font-size="28">maps / metadata / public-source trails</text>
  <text x="752" y="376" fill="#f59e0b" font-family="JetBrains Mono, Consolas, monospace" font-size="28">clue -> source -> location</text>
  <rect x="150" y="590" width="284" height="7" rx="4" fill="#f59e0b"/>
</svg>
